<svg id="Layer_3" data-name="Layer 3" xmlns="http://www.w3.org/2000/svg" viewBox="0 0 886.03 177.5"><defs><style>.cls-1{fill:#2a66ad;}.cls-2{fill:#e5a973;}.cls-3{fill:#669ecc;}</style></defs><title>v2 transparent</title><path class="cls-1" d="M630,948.38H587.6v-88q0-11.5-6.74-11.51-15.58,0-15.58,33.14v66.38H522.85V862.23q0-13.12-6-13.13-15.81,0-15.81,33v66.27H458.56V853.72c11.86-1.88,24.12-4,37.65-17.87a2.63,2.63,0,0,1,4.79,1.5v10.82q15-20.11,37-20.11,18.38,0,27.32,18.94,14.19-19.17,35.46-19.18,29.29,0,29.29,29.65Z" transform="translate(-204.98 -775.25)"/><path class="cls-1" d="M733.52,907.18l17.08,5c-3.52,27.54-19,39.66-47.89,40.57-39.06,0-55-19.49-55-58.47,0-18.91,2.16-32.35,12.55-44.44s24.61-15.53,40.81-15.53c33.87,0,49.29,17.19,49.29,60.9H688.53q0,46,23.36,46,21.86,0,21.86-26C733.75,912.88,733.67,910.2,733.52,907.18Zm-45.11-25.11h25.34c0-27.28-4.45-32.78-12.67-32.78-7.44,0-11.28,2-12.2,22.2Z" transform="translate(-204.98 -775.25)"/><path class="cls-1" d="M878.84,949.65H836.41v-86q0-13.14-7.32-13.14T816.18,860.9q-5.46,10.4-5.46,24.58v64.17H768.29V855c12.55-1.2,23.89-4.52,37.65-17.87a2.8,2.8,0,0,1,4.78.68c.14.36,0-.43,0,0v13.5q15.81-21.85,38.6-21.86,29.52,0,29.52,30Z" transform="translate(-204.98 -775.25)"/><path class="cls-1" d="M964.89,831.54v13.14H946.06v82.89q0,7.78,5,7.79,3.6,0,4.3-5.24l12.09,1.17q-5,18.36-31.85,18.37-32,0-32-27.21V844.68H889.44V831.54h14.19V810.85c18.23-1.83,30.13-9.8,37.62-17.89,2.57-2.61,5.08-.45,4.79,2.54l0,36Z" transform="translate(-204.98 -775.25)"/><path class="cls-1" d="M1032.89,830.43q58.13,0,58.13,60.25t-58.13,60.25q-58.25,0-58.24-60.25T1032.89,830.43Zm-.12,12.11q-14.06,0-14.06,48.14t14.06,48.15q14.19,0,14.19-48.15T1032.77,842.54Z" transform="translate(-204.98 -775.25)"/><ellipse class="cls-2" cx="475.99" cy="816.43" rx="19.61" ry="19.76" transform="translate(-616.64 365.55) rotate(-79.83)"/><ellipse class="cls-2" cx="420.37" cy="796.6" rx="21.17" ry="19.9" transform="translate(-642.92 294.47) rotate(-79.83)"/><path class="cls-1" d="M376.45,948.38H334v-88q0-11.5-6.74-11.51-15.58,0-15.58,33.14v66.38H269.27V862.23q0-13.12-6-13.13-15.81,0-15.81,33v66.27H205V853.72c11.86-1.88,24.12-4,37.65-17.87a2.63,2.63,0,0,1,4.78,1.5v10.82q15-20.11,37-20.11,18.38,0,27.32,18.94,14.19-19.17,35.46-19.18,29.29,0,29.29,29.65Z" transform="translate(-204.98 -775.25)"/><path class="cls-3" d="M396.29,948.38V831.31a308.86,308.86,0,0,0,42.43-3.14V948.38Z" transform="translate(-204.98 -775.25)"/><path class="cls-3" d="M501,882.11v66.27H458.56V853.72c11.86-1.88,24.12-4,37.65-17.87a2.63,2.63,0,0,1,4.79,1.5Z" transform="translate(-204.98 -775.25)"/></svg>